<svg xmlns="http://www.w3.org/2000/svg" width="210" height="112" viewBox="0 0 210 112" fill="none">
<path d="M92.8984 12.0859V83.5968" stroke="#008943" stroke-width="2" stroke-linecap="round"/>
<path d="M62.0078 12.2891V83.7999" stroke="#66DE88" stroke-width="2" stroke-linecap="round"/>
<path d="M123.367 12.0859V83.5968" stroke="#66DE88" stroke-width="2" stroke-linecap="round"/>
<path d="M154.867 12.0859V83.5968" stroke="#008943" stroke-width="2" stroke-linecap="round"/>
<path d="M61.792 84.7969C69.1696 84.797 75.123 90.6775 75.123 97.8975C75.123 105.118 69.1696 110.998 61.792 110.998C54.4143 110.998 48.4609 105.118 48.4609 97.8975C48.461 90.6774 54.4143 84.7969 61.792 84.7969Z" stroke="#66DE88" stroke-width="2"/>
<path d="M61.9531 104.305L61.9533 105.916" stroke="#66DE88" stroke-width="2" stroke-linecap="round"/>
<path d="M61.9377 91.4081L61.9375 89.3945" stroke="#66DE88" stroke-width="2" stroke-linecap="round"/>
<path d="M65.162 92.2932C64.3123 91.8381 63.0223 91.4125 61.8161 91.4176C60.3624 91.4238 59.0305 92.0555 58.7381 94.0151C58.3525 96.5995 61.2783 97.527 63.0213 98.4606C65.4307 99.7512 65.4091 102.171 63.9588 103.337C63.3065 103.861 62.5659 104.149 61.8177 104.258C60.7238 104.417 59.6136 104.194 58.7393 103.768" stroke="#66DE88" stroke-width="2" stroke-linecap="round"/>
<path d="M93.0938 104.305L93.0939 105.916" stroke="#008943" stroke-width="2" stroke-linecap="round"/>
<path d="M93.094 91.4081L93.0938 89.3945" stroke="#008943" stroke-width="2" stroke-linecap="round"/>
<path d="M96.3338 92.2932C95.4842 91.8381 94.1941 91.4125 92.988 91.4176C91.5343 91.4238 90.2024 92.0555 89.91 94.0151C89.5244 96.5995 92.4502 97.527 94.1932 98.4606C96.6026 99.7512 96.581 102.171 95.1307 103.337C94.4784 103.861 93.7378 104.149 92.9895 104.258C91.8956 104.417 90.7854 104.194 89.9112 103.768" stroke="#008943" stroke-width="2" stroke-linecap="round"/>
<path d="M124.25 104.305L124.25 105.916" stroke="#66DE88" stroke-width="2" stroke-linecap="round"/>
<path d="M124.25 91.4081L124.25 89.3945" stroke="#66DE88" stroke-width="2" stroke-linecap="round"/>
<path d="M127.474 92.2932C126.625 91.8381 125.335 91.4125 124.129 91.4176C122.675 91.4238 121.343 92.0555 121.051 94.0151C120.665 96.5995 123.591 97.527 125.334 98.4606C127.743 99.7512 127.722 102.171 126.271 103.337C125.619 103.861 124.878 104.149 124.13 104.258C123.036 104.417 121.926 104.194 121.052 103.768" stroke="#66DE88" stroke-width="2" stroke-linecap="round"/>
<path d="M155.391 104.305L155.391 105.916" stroke="#008943" stroke-width="2" stroke-linecap="round"/>
<path d="M155.391 91.4081L155.391 89.3945" stroke="#008943" stroke-width="2" stroke-linecap="round"/>
<path d="M158.623 92.2932C157.773 91.8381 156.483 91.4125 155.277 91.4176C153.823 91.4238 152.491 92.0555 152.199 94.0151C151.813 96.5995 154.739 97.527 156.482 98.4606C158.892 99.7512 158.87 102.171 157.42 103.337C156.767 103.861 156.027 104.149 155.279 104.258C154.185 104.417 153.075 104.194 152.2 103.768" stroke="#008943" stroke-width="2" stroke-linecap="round"/>
<path d="M92.9014 84.5938C100.279 84.5939 106.232 90.4743 106.232 97.6943C106.232 104.914 100.279 110.795 92.9014 110.795C85.5236 110.795 79.5703 104.914 79.5703 97.6943C79.5704 90.4743 85.5237 84.5938 92.9014 84.5938Z" stroke="#008943" stroke-width="2"/>
<path d="M123.979 84.5938C131.357 84.5939 137.31 90.4743 137.311 97.6943C137.311 104.914 131.357 110.795 123.979 110.795C116.602 110.795 110.648 104.914 110.648 97.6943C110.649 90.4743 116.602 84.5938 123.979 84.5938Z" stroke="#66DE88" stroke-width="2"/>
<path d="M155.065 84.5938C162.443 84.5939 168.396 90.4743 168.396 97.6943C168.396 104.914 162.443 110.795 155.065 110.795C147.688 110.795 141.734 104.914 141.734 97.6943C141.734 90.4743 147.688 84.5938 155.065 84.5938Z" stroke="#008943" stroke-width="2"/>
<path d="M30.9315 76.5401C30.1242 76.4058 27.3388 74.8481 22.6562 69.6914" stroke="#66DE88" stroke-width="2" stroke-linecap="round"/>
<path d="M26.0796 86.4192C20.2937 83.8677 7.3493 75.8642 1.85938 64.2617" stroke="#66DE88" stroke-width="2" stroke-linecap="round"/>
<path d="M27.901 102.532C23.9316 101.457 14.2973 97.1735 7.51562 88.6328" stroke="#66DE88" stroke-width="2" stroke-linecap="round"/>
<path d="M179.068 71.9112C179.876 71.7769 182.661 70.2192 187.344 65.0625" stroke="#66DE88" stroke-width="2" stroke-linecap="round"/>
<path d="M183.92 81.7786C189.706 79.2271 202.651 71.2236 208.141 59.6211" stroke="#66DE88" stroke-width="2" stroke-linecap="round"/>
<path d="M182.107 97.8949C186.076 96.8206 195.711 92.5368 202.492 83.9961" stroke="#66DE88" stroke-width="2" stroke-linecap="round"/>
<path d="M38.9844 0H162.537C169.435 0 175.026 5.59161 175.026 12.4892H51.4736C44.576 12.4892 38.9844 6.8976 38.9844 0Z" fill="#66DE88"/>
</svg>