<svg width="39" height="38" viewBox="0 0 39 38" fill="none" xmlns="http://www.w3.org/2000/svg">
<path d="M38 1L32.1216 5.68309M32.1216 5.68309C30.7199 3.92597 28.5605 2.8 26.138 2.8C24.314 2.8 22.6391 3.43837 21.3245 4.50388C19.5941 5.90642 18.488 8.04904 18.488 10.45C18.488 12.5625 19.3443 14.475 20.7286 15.8594C22.113 17.2437 24.0255 18.1 26.138 18.1C30.363 18.1 33.788 14.675 33.788 10.45C33.788 8.64747 33.1646 6.99056 32.1216 5.68309ZM15.7718 32.8897L13.961 36.0259C13.6503 36.5639 12.9624 36.7482 12.4243 36.4377L7.64365 33.6781C7.1055 33.3674 6.9211 32.6793 7.23181 32.1412L9.0425 29.0053C9.26274 28.6243 9.19234 28.1997 8.95621 27.9074C8.74558 27.6466 8.4031 27.491 8.0174 27.5653L4.57608 28.2289C3.96603 28.3465 3.37611 27.9474 3.25843 27.3373L2.2131 21.9182C2.09541 21.3081 2.49464 20.7181 3.10477 20.6005L6.5468 19.9369C9.47275 19.3726 12.1232 20.2806 14.0186 21.9872C16.8875 24.5704 18.0263 28.9833 15.7718 32.8897ZM15.977 5.1103L14.1671 1.97449C13.8564 1.43631 13.1683 1.25189 12.6302 1.56259L7.8497 4.32272C7.31158 4.63341 7.12725 5.32154 7.43801 5.85962L9.24861 8.9947C9.46833 9.37565 9.39804 9.80007 9.16216 10.0924C8.95166 10.3533 8.6093 10.509 8.22351 10.4347L4.7817 9.77046C4.17149 9.65269 3.58139 10.052 3.46383 10.6623L2.41978 16.082C2.30226 16.692 2.70145 17.2818 3.31145 17.3995L6.75291 18.0631C9.67896 18.6273 12.3296 17.7196 14.2251 16.0133C17.0946 13.4301 18.2328 9.01694 15.977 5.1103ZM26.4125 29.0053L28.2232 32.1412C28.5339 32.6793 28.3495 33.3674 27.8114 33.6781L23.031 36.4375C22.4928 36.7481 21.8047 36.5636 21.4942 36.0254L19.6855 32.8905C19.6852 32.89 19.6847 32.8897 19.6841 32.8897V32.8897C19.6835 32.8897 19.683 32.8894 19.6828 32.8889C18.6771 31.146 18.3469 29.3023 18.5444 27.5653C18.7654 25.6211 19.6477 23.8105 20.984 22.4245C22.8973 20.4401 25.7414 19.3262 28.9082 19.9369L32.3502 20.6005C32.9604 20.7181 33.3596 21.3081 33.2419 21.9182L32.1966 27.3373C32.0789 27.9474 31.489 28.3465 30.8789 28.2289L27.4376 27.5653C27.0135 27.4837 26.6419 27.6799 26.4402 27.9883C26.2529 28.2748 26.2123 28.6581 26.4125 29.0053Z" stroke="#66DE88" stroke-width="2.475"/>
</svg>
