<svg width="39" height="39" viewBox="0 0 39 39" fill="none" xmlns="http://www.w3.org/2000/svg">
<path d="M38 2L32.1216 6.68309M32.1216 6.68309C30.7199 4.92597 28.5605 3.8 26.138 3.8C24.314 3.8 22.6391 4.43837 21.3245 5.50388C19.5941 6.90642 18.488 9.04904 18.488 11.45C18.488 13.5625 19.3443 15.475 20.7286 16.8594C22.113 18.2437 24.0255 19.1 26.138 19.1C30.363 19.1 33.788 15.675 33.788 11.45C33.788 9.64747 33.1646 7.99056 32.1216 6.68309ZM15.7718 33.8897L13.961 37.0259C13.6503 37.5639 12.9624 37.7482 12.4243 37.4377L7.64365 34.6781C7.1055 34.3674 6.9211 33.6793 7.23181 33.1412L9.0425 30.0053C9.26274 29.6243 9.19234 29.1997 8.95621 28.9074C8.74558 28.6466 8.4031 28.491 8.0174 28.5653L4.57608 29.2289C3.96603 29.3465 3.37611 28.9474 3.25843 28.3373L2.2131 22.9182C2.09541 22.3081 2.49464 21.7181 3.10477 21.6005L6.5468 20.9369C9.47275 20.3726 12.1232 21.2806 14.0186 22.9872C16.8875 25.5704 18.0263 29.9833 15.7718 33.8897ZM15.977 6.1103L14.1671 2.97449C13.8564 2.43631 13.1683 2.25189 12.6302 2.56259L7.8497 5.32272C7.31158 5.63341 7.12725 6.32154 7.43801 6.85962L9.24861 9.9947C9.46833 10.3756 9.39804 10.8001 9.16216 11.0924C8.95166 11.3533 8.6093 11.509 8.22351 11.4347L4.7817 10.7705C4.17149 10.6527 3.58139 11.052 3.46383 11.6623L2.41978 17.082C2.30226 17.692 2.70145 18.2818 3.31145 18.3995L6.75291 19.0631C9.67896 19.6273 12.3296 18.7196 14.2251 17.0133C17.0946 14.4301 18.2328 10.0169 15.977 6.1103ZM26.4125 30.0053L28.2232 33.1412C28.5339 33.6793 28.3495 34.3674 27.8114 34.6781L23.031 37.4375C22.4928 37.7481 21.8047 37.5636 21.4942 37.0254L19.6855 33.8905C19.6852 33.89 19.6847 33.8897 19.6841 33.8897V33.8897C19.6835 33.8897 19.683 33.8894 19.6828 33.8889C18.6771 32.146 18.3469 30.3023 18.5444 28.5653C18.7654 26.6211 19.6477 24.8105 20.984 23.4245C22.8973 21.4401 25.7414 20.3262 28.9082 20.9369L32.3502 21.6005C32.9604 21.7181 33.3596 22.3081 33.2419 22.9182L32.1966 28.3373C32.0789 28.9474 31.489 29.3465 30.8789 29.2289L27.4376 28.5653C27.0135 28.4837 26.6419 28.6799 26.4402 28.9883C26.2529 29.2748 26.2123 29.6581 26.4125 30.0053Z" stroke="#006D34" stroke-width="2.8125"/>
</svg>
