<svg width="199" height="151" viewBox="0 0 199 151" fill="none" xmlns="http://www.w3.org/2000/svg">
<path d="M128.703 72.4492C131.523 76.9715 132.652 79.5107 136.599 85.4317" stroke="#00210B" stroke-width="2" stroke-linecap="round"/>
<path d="M137.398 66.3008C140.218 70.8231 141.673 73.0382 145.621 78.9593" stroke="#00210B" stroke-width="2" stroke-linecap="round"/>
<path d="M197.223 112.217C193.933 104.98 185.099 89.8295 176.076 87.1228C164.798 83.7393 154.93 78.6641 151.828 81.7656" stroke="#00210B" stroke-width="2" stroke-linecap="round"/>
<path d="M191.301 150.001C181.715 146.994 161.076 137.37 155.211 122.934" stroke="#00210B" stroke-width="2" stroke-linecap="round"/>
<path d="M150.977 128.852C151.728 132.705 155.037 139.115 162.255 133.927" stroke="#00210B" stroke-width="2" stroke-linecap="round"/>
<path d="M138.856 93.6094C136.694 102.444 135.585 117.632 148.442 107.707" stroke="#00210B" stroke-width="2" stroke-linecap="round"/>
<path d="M174.38 106.298C172.97 107.802 168.967 109.568 164.23 104.606C158.309 98.4031 151.824 74.155 139.982 80.358C128.14 86.561 152.67 108.271 153.516 115.602C154.361 122.933 155.207 126.881 150.978 128.854C146.749 130.828 142.801 127.726 143.647 111.655" stroke="#00210B" stroke-width="2" stroke-linecap="round"/>
<path d="M70.1328 55.5443C70.1328 57.5687 71.7739 59.2097 73.7982 59.2097C74.8377 59.2097 75.7761 58.777 76.4432 58.0819L73.7982 51.8789C71.7739 51.8789 70.1328 53.52 70.1328 55.5443Z" fill="#008943"/>
<path d="M84.2344 71.8978C84.2344 73.9221 85.8754 75.5632 87.8998 75.5632C89.7324 75.5632 91.2508 74.2183 91.5221 72.4617L85.9261 68.8086C84.9087 69.4599 84.2344 70.6001 84.2344 71.8978Z" fill="#008943"/>
<path d="M109.252 8.33203C126.296 8.33226 140.112 22.1495 140.112 39.1934C140.112 56.237 126.296 70.0535 109.252 70.0537C92.2081 70.0537 78.3909 56.2372 78.3906 39.1934C78.3906 22.1494 92.208 8.33203 109.252 8.33203Z" stroke="#00210B" stroke-width="2"/>
<circle cx="109.246" cy="39.1917" r="38.1917" stroke="#00210B" stroke-width="2"/>
<path d="M103.353 77.7001C102.373 80.4309 101.469 82.3633 100.386 84.0973C99.7096 85.1793 99.924 86.6185 100.833 87.5136C104.94 91.5577 109.198 99.7663 102.267 109.557C94.5428 120.467 80.6894 114.924 74.5006 110.361C74.1543 110.106 73.9007 109.749 73.7556 109.344L56.3465 60.7531C56.2226 60.4071 56.1821 60.0371 56.2399 59.6742C57.4223 52.2499 62.046 43.2617 70.5033 39.7501" stroke="#008943" stroke-width="2" stroke-linecap="round"/>
<path d="M117.763 67.7409C119.506 54.5477 115.607 39.7824 97.3861 31.1737C92.0658 28.6601 87.1816 27.4681 82.7484 27.2963" stroke="#00210B" stroke-width="2" stroke-linecap="round"/>
<path d="M17.9546 66.3089C7.58596 88.2552 25.9886 101.864 37.5632 105.729C38.7733 106.133 39.5188 107.39 39.385 108.659C38.7807 114.391 40.7044 123.436 52.2758 126.597C65.1706 130.12 72.3524 117.041 74.2355 109.586C74.3409 109.169 74.3101 108.732 74.165 108.327L56.7559 59.7361C56.632 59.3902 56.4307 59.0806 56.155 58.8376C47.0216 50.7863 27.5947 45.9045 17.9546 66.3089Z" stroke="#008943" stroke-width="2" stroke-linecap="round"/>
<path d="M57.1347 51.8757C54.65 47.029 52.0934 33.6275 61.7453 18.7954" stroke="#008943" stroke-width="2" stroke-linecap="round"/>
<path d="M53.4453 55.0197C52.2869 49.6978 45.7514 37.7219 28.8765 32.3937" stroke="#008943" stroke-width="2" stroke-linecap="round"/>
<ellipse cx="37.7123" cy="65.1303" rx="3.66541" ry="3.66541" fill="#008943"/>
<ellipse cx="28.6889" cy="78.6654" rx="3.66541" ry="3.66541" fill="#008943"/>
<ellipse cx="43.9154" cy="79.7943" rx="3.66541" ry="3.66541" fill="#008943"/>
<ellipse cx="54.0639" cy="112.501" rx="3.66541" ry="3.66541" fill="#008943"/>
<ellipse cx="59.7045" cy="100.095" rx="3.66541" ry="3.66541" fill="#008943"/>
<ellipse cx="46.1654" cy="96.7123" rx="3.66541" ry="3.66541" fill="#008943"/>
<ellipse cx="72.1107" cy="69.0795" rx="3.66541" ry="3.66541" fill="#008943"/>
<ellipse cx="87.8998" cy="104.607" rx="3.66541" ry="3.66541" fill="#008943"/>
<ellipse cx="96.9232" cy="93.892" rx="3.66541" ry="3.66541" fill="#008943"/>
<ellipse cx="107.637" cy="55.5432" rx="4.79323" ry="4.79323" fill="#00210B"/>
<ellipse cx="92.4104" cy="44.2659" rx="4.79323" ry="4.79323" fill="#00210B"/>
<ellipse cx="82.8217" cy="86.5599" rx="3.66541" ry="3.66541" fill="#008943"/>
</svg>
