<svg xmlns="http://www.w3.org/2000/svg" width="222" height="164" viewBox="0 0 222 164" fill="none">
<path d="M169.823 152.006C163.103 146.531 172.209 145.888 177.601 146.251V149.829L190.512 153.095C186.416 155.014 176.543 157.482 169.823 152.006Z" fill="#008943"/>
<path d="M205.131 148.739C200.775 149.237 199.479 147.287 199.375 146.25H208.708C209.33 146.872 209.486 148.241 205.131 148.739Z" fill="#008943"/>
<path d="M195.34 133.653C190.518 133.653 187.873 133.342 183.984 133.031" stroke="#008943" stroke-width="1.5" stroke-linecap="round"/>
<path d="M199.062 135.52V150.453" stroke="#008943" stroke-width="1.5" stroke-linecap="round"/>
<path d="M187.86 136.297L177.594 135.52" stroke="#008943" stroke-width="1.5" stroke-linecap="round"/>
<path d="M192.688 137.852V152.94" stroke="#008943" stroke-width="1.5" stroke-linecap="round"/>
<path d="M192.539 153.25L199.072 150.605" stroke="#008943" stroke-width="1.5" stroke-linecap="round"/>
<path d="M183.816 133.031L177.594 135.52" stroke="#008943" stroke-width="1.5" stroke-linecap="round"/>
<path d="M177.438 135.676V149.987" stroke="#008943" stroke-width="1.5" stroke-linecap="round"/>
<path d="M177.297 149.828L192.541 153.25" stroke="#008943" stroke-width="1.5" stroke-linecap="round"/>
<path d="M195.328 133.961V129.605" stroke="#008943" stroke-width="1.5" stroke-linecap="round"/>
<path d="M208.867 146.093V131.004" stroke="#008943" stroke-width="1.5" stroke-linecap="round"/>
<path d="M216.18 126.035V142.835" stroke="#008943" stroke-width="1.5" stroke-linecap="round"/>
<path d="M208.867 146.41L216.178 142.832" stroke="#008943" stroke-width="1.5" stroke-linecap="round"/>
<path d="M216.184 125.88L199.695 125.258" stroke="#008943" stroke-width="1.5" stroke-linecap="round"/>
<path d="M195.328 129.613L199.684 125.258" stroke="#008943" stroke-width="1.5" stroke-linecap="round"/>
<path d="M208.867 130.85L216.023 126.184" stroke="#008943" stroke-width="1.5" stroke-linecap="round"/>
<path d="M208.873 146.098H199.695" stroke="#008943" stroke-width="1.5" stroke-linecap="round"/>
<path d="M195.492 129.605L204.359 129.917" stroke="#008943" stroke-width="1.5" stroke-linecap="round"/>
<path d="M71.1882 158.554C71.3438 154.199 88.7659 155.599 89.8548 155.754V158.554L95.1436 162.288C87.1066 162.495 71.0638 162.039 71.1882 158.554Z" fill="#008943"/>
<path d="M114.438 158.093V142.227" stroke="#008943" stroke-width="1.5" stroke-linecap="round"/>
<path d="M100.906 162.133V144.711" stroke="#008943" stroke-width="1.5" stroke-linecap="round"/>
<path d="M89.7031 158.086V140.664" stroke="#008943" stroke-width="1.5" stroke-linecap="round"/>
<path d="M89.7031 140.666L101.992 137.555" stroke="#008943" stroke-width="1.5" stroke-linecap="round"/>
<path d="M114.44 142.066L100.906 144.555" stroke="#008943" stroke-width="1.5" stroke-linecap="round"/>
<path d="M100.906 162.291L114.44 158.246" stroke="#008943" stroke-width="1.5" stroke-linecap="round"/>
<path d="M114.429 142.066L101.984 137.555" stroke="#008943" stroke-width="1.5" stroke-linecap="round"/>
<path d="M89.7031 140.824L101.059 144.558" stroke="#008943" stroke-width="1.5" stroke-linecap="round"/>
<path d="M129.606 157.779C126.744 152.801 135.88 152.075 140.806 152.335V155.912L156.828 157.779C148.947 159.853 132.468 162.757 129.606 157.779Z" fill="#008943"/>
<path d="M164.754 151.086L158.688 157.308" stroke="#008943" stroke-width="1.5" stroke-linecap="round"/>
<path d="M157.289 138.335L141.578 137.246" stroke="#008943" stroke-width="1.5" stroke-linecap="round"/>
<path d="M147.953 133.199L164.753 133.977" stroke="#008943" stroke-width="1.5" stroke-linecap="round"/>
<path d="M141.262 137.246L140.484 155.29" stroke="#008943" stroke-width="1.5" stroke-linecap="round"/>
<path d="M164.75 134.289V150.778" stroke="#008943" stroke-width="1.5" stroke-linecap="round"/>
<path d="M158.688 144.086V157.308" stroke="#008943" stroke-width="1.5" stroke-linecap="round"/>
<path d="M141.258 137.244L147.947 133.199" stroke="#008943" stroke-width="1.5" stroke-linecap="round"/>
<path d="M158.691 157.316L140.336 155.449" stroke="#008943" stroke-width="1.5" stroke-linecap="round"/>
<path d="M126.352 41.1934C127.026 40.9859 128.809 40.7889 130.552 41.66" stroke="#66DE88" stroke-width="1.5" stroke-linecap="round"/>
<path d="M120.131 49.2838C121.334 49.2838 122.309 48.2392 122.309 46.9505C122.309 45.6619 121.334 44.6172 120.131 44.6172C118.928 44.6172 117.953 45.6619 117.953 46.9505C117.953 48.2392 118.928 49.2838 120.131 49.2838Z" fill="#66DE88"/>
<path d="M137.873 52.3971C139.076 52.3971 140.051 51.3524 140.051 50.0638C140.051 48.7751 139.076 47.7305 137.873 47.7305C136.67 47.7305 135.695 48.7751 135.695 50.0638C135.695 51.3524 136.67 52.3971 137.873 52.3971Z" fill="#66DE88"/>
<path d="M114.844 43.217C114.999 42.2317 115.964 40.3548 118.577 40.7281" stroke="#66DE88" stroke-width="1.5" stroke-linecap="round"/>
<path d="M134.758 42.9039C136.002 41.815 139.113 40.2906 141.602 42.9039" stroke="#66DE88" stroke-width="1.5" stroke-linecap="round"/>
<path d="M128.063 45.5508C129.515 47.9361 131.547 53.0485 128.063 54.4174L126.352 55.0396" stroke="#66DE88" stroke-width="1.5" stroke-linecap="round"/>
<path d="M122.164 59.8594C122.527 60.8447 123.906 62.4727 126.52 61.1038" stroke="#66DE88" stroke-width="1.5" stroke-linecap="round"/>
<path d="M72.0586 36.9943C66.9564 53.7942 81.1324 65.9794 88.8585 69.9719C95.8274 65.7408 105.762 63.5942 110.014 62.972C104.725 58.6164 103.118 50.6312 102.703 46.9498C99.9029 47.8831 92.4363 44.3054 95.8585 36.9943C98.5962 31.1455 101.562 34.1424 102.703 36.3721L110.325 39.7943C110.325 32.701 115.199 30.3055 117.636 29.9944C119.129 28.9988 120.747 25.7424 121.369 24.2388C122.116 30.0877 129.769 34.3499 133.503 35.7499C138.356 31.8921 142.265 34.1424 143.614 35.7499L147.036 35.2832C153.725 33.0019 165.734 25.2033 160.258 12.2611C154.783 -0.681008 143.458 1.68342 138.48 4.48341C121.432 -6.84097 104.31 9.72031 97.8807 19.4167C91.399 18.2758 77.1608 20.1944 72.0586 36.9943Z" fill="#66DE88"/>
<path d="M110.185 39.9475L102.719 36.0586" stroke="#66DE88" stroke-width="1.5" stroke-linecap="round"/>
<path d="M126.195 39.6334C126.195 44.9984 122.528 49.1222 118.261 49.1222C113.995 49.1222 110.328 44.9984 110.328 39.6334C110.328 34.268 113.995 30.1445 118.261 30.1445C122.528 30.1445 126.195 34.268 126.195 39.6334Z" stroke="#66DE88" stroke-width="1.5"/>
<path d="M146.734 43.0631C146.734 48.4281 143.067 52.5519 138.8 52.5519C134.534 52.5519 130.867 48.4281 130.867 43.0631C130.867 37.6977 134.534 33.5742 138.8 33.5742C143.067 33.5742 146.734 37.6977 146.734 43.0631Z" stroke="#66DE88" stroke-width="1.5"/>
<path d="M147.042 73.0474C158.988 63.4652 152.175 50.5439 147.197 45.2031C144.459 58.1453 138.123 63.7141 135.375 64.9586L139.731 67.2919L147.042 73.0474Z" fill="#66DE88"/>
<path d="M103.649 39.6392C103.389 36.7873 100.071 29.9948 96.493 36.3726C94.9374 39.2762 93.8175 45.4881 101.782 47.1059" stroke="#66DE88" stroke-width="1.5" stroke-linecap="round"/>
<path d="M101.006 38.5508C100.28 39.173 99.2015 40.7908 100.695 42.2841" stroke="#66DE88" stroke-width="1.5" stroke-linecap="round"/>
<path d="M146.115 46.6367C145.244 51.6145 143.314 56.1234 141.292 58.9255C140.028 60.6777 137.979 62.8894 135.367 64.8173" stroke="#66DE88" stroke-width="1.5" stroke-linecap="round"/>
<path d="M102.55 47.1055C102.446 53.4313 104.915 62.8165 116.239 67.7942C117.981 68.5599 119.694 68.9992 121.358 69.1762" stroke="#66DE88" stroke-width="1.5" stroke-linecap="round"/>
<path d="M134.284 75.4133C131.796 74.7911 129.411 76.8133 128.529 77.9022C128.062 78.8875 127.845 80.8266 130.707 80.7022C134.284 80.5466 135.373 75.4133 139.573 83.6577C142.933 90.2533 143.151 103.206 142.84 108.858" stroke="#66DE88" stroke-width="1.5" stroke-linecap="round" stroke-linejoin="round"/>
<path d="M126.153 73.707C125.341 75.4701 124.682 78.7781 128.54 77.907" stroke="#66DE88" stroke-width="1.5" stroke-linecap="round" stroke-linejoin="round"/>
<path d="M127.654 67.6367C125.477 68.57 122.318 71.93 123.563 74.17C123.718 74.4292 124.185 74.9167 124.807 74.7922C125.08 74.7378 125.524 74.2633 126.153 73.7033C127.321 72.6646 129.125 71.3315 131.651 71.8367" stroke="#66DE88" stroke-width="1.5" stroke-linecap="round" stroke-linejoin="round"/>
<path d="M171.173 121.053C172.729 113.431 171.213 95.5451 152.173 78.3719L139.573 67.3275L131.64 63.1275L130.085 62.8164L124.174 64.2164L123.551 64.8386L121.529 68.5719C121.218 69.3497 122.556 70.2519 124.796 69.5053" stroke="#66DE88" stroke-width="1.5" stroke-linecap="round" stroke-linejoin="round"/>
<path d="M109.557 63.5938C99.4455 64.9418 73.1972 70.7378 57.2902 94.238C42.2984 116.386 59.2539 125.719 71.8538 126.186" stroke="#66DE88" stroke-width="1.5" stroke-linecap="round" stroke-linejoin="round"/>
<path d="M1 129.297L71.1551 125.875" stroke="#66DE88" stroke-width="1.5" stroke-linecap="round" stroke-linejoin="round"/>
<path d="M90.2891 125.101L221.002 119.406" stroke="#66DE88" stroke-width="1.5" stroke-linecap="round"/>
<path d="M78.6349 126.423C78.8272 127.02 78.6856 127.448 77.9365 127.513C75.7192 127.703 73.086 124.266 72.0469 122.523" stroke="#66DE88" stroke-width="1.5" stroke-linecap="round"/>
<path d="M78.6364 119.676C79.743 121.444 81.6728 124.168 83.3646 125.714C83.2103 126.902 82.0496 128.707 78.642 126.427C78.1231 124.817 75.1719 121.987 75.1719 121.814" stroke="#66DE88" stroke-width="1.5" stroke-linecap="round"/>
<path d="M81.6275 118.016C83.7446 120.352 87.5865 125.357 86.016 126.687C85.7376 126.923 85.3826 126.946 84.9766 126.808C84.4931 126.643 83.9375 126.25 83.3532 125.717C81.6614 124.171 79.7316 121.447 78.625 119.678" stroke="#66DE88" stroke-width="1.5" stroke-linecap="round"/>
<path d="M64.2266 124.094C67.7679 119.659 79.0886 110.046 85.5556 115.867C88.1347 118.441 91.3491 123.093 89.5014 124.994C88.5774 125.706 86.5776 124.756 85.2877 122.855" stroke="#66DE88" stroke-width="1.5" stroke-linecap="round"/>
<path d="M76.8518 98.8086C74.6221 100.572 71.1274 105.155 74.9852 109.386" stroke="#66DE88" stroke-width="1.5" stroke-linecap="round"/>
</svg>