<svg width="32" height="32" viewBox="0 0 32 32" fill="none" xmlns="http://www.w3.org/2000/svg">
<rect width="32" height="32" rx="8" fill="#326941"/>
<path d="M27.3333 5.33333L23.8498 8.1085M23.8498 8.1085C23.0192 7.06724 21.7395 6.4 20.304 6.4C19.2231 6.4 18.2306 6.77829 17.4515 7.40971C16.4261 8.24084 15.7707 9.51054 15.7707 10.9333C15.7707 12.1852 16.2781 13.3185 17.0984 14.1389C17.9188 14.9593 19.0522 15.4667 20.304 15.4667C22.8077 15.4667 24.8373 13.437 24.8373 10.9333C24.8373 9.86517 24.4679 8.88329 23.8498 8.1085ZM14.1611 24.2309L13.088 26.0894C12.9039 26.4082 12.4962 26.5175 12.1774 26.3334L9.34438 24.6981C9.02548 24.514 8.91621 24.1063 9.10033 23.7874L10.1733 21.9291C10.3038 21.7033 10.2621 21.4517 10.1222 21.2785C9.99738 21.1239 9.79443 21.0317 9.56587 21.0757L7.52657 21.469C7.16505 21.5387 6.81547 21.3022 6.74574 20.9406L6.12628 17.7293C6.05654 17.3678 6.29312 17.0182 6.65468 16.9484L8.6944 16.5552C10.4283 16.2208 11.9989 16.7589 13.1221 17.7702C14.8222 19.301 15.4971 21.916 14.1611 24.2309ZM10.2955 10.0709L9.22252 8.21311C9.03837 7.89424 9.1476 7.48647 9.46649 7.30235L12.2994 5.66672C12.6183 5.4826 13.026 5.59189 13.2101 5.9108L14.2825 7.76883C14.2826 7.76898 14.2828 7.76907 14.2829 7.76907V7.76907C14.2831 7.76907 14.2833 7.76916 14.2833 7.7693C15.6199 10.0843 14.9449 12.6994 13.2445 14.2301C12.1212 15.2412 10.5505 15.7792 8.81654 15.4448L6.77716 15.0515C6.41568 14.9818 6.17912 14.6323 6.24876 14.2708L6.86746 11.0591C6.93712 10.6975 7.28681 10.4609 7.64842 10.5306L9.68801 10.9243C9.91662 10.9683 10.1195 10.876 10.2442 10.7214C10.384 10.5482 10.4257 10.2967 10.2955 10.0709ZM20.4667 21.9291L21.5397 23.7874C21.7238 24.1063 21.6145 24.514 21.2956 24.6981L18.4628 26.3333C18.1439 26.5174 17.7361 26.4081 17.5521 26.0891L16.4803 24.2314C16.4801 24.2311 16.4798 24.2309 16.4795 24.2309V24.2309C16.4791 24.2309 16.4788 24.2308 16.4787 24.2305C15.8827 23.1976 15.687 22.1051 15.8041 21.0757C15.9351 19.9236 16.4579 18.8507 17.2498 18.0294C18.3836 16.8534 20.069 16.1933 21.9456 16.5552L23.9853 16.9484C24.3469 17.0182 24.5835 17.3678 24.5137 17.7293L23.8943 20.9406C23.8245 21.3022 23.4749 21.5387 23.1134 21.469L21.0741 21.0757C20.8228 21.0274 20.6026 21.1436 20.4831 21.3264C20.3721 21.4962 20.348 21.7233 20.4667 21.9291Z" stroke="white" stroke-width="1.33333"/>
</svg>
