<svg width="153" height="129" viewBox="0 0 153 129" fill="none" xmlns="http://www.w3.org/2000/svg">
<path d="M45.1621 112.335C45.1638 112.336 45.1651 112.338 45.1652 112.34L46.2831 125.159C46.475 127.361 48.4152 128.989 50.6163 128.797L70.1669 127.088C72.3678 126.896 73.996 124.955 73.8034 122.754L72.6807 109.928C72.5571 108.509 73.2641 107.335 74.2983 106.693C75.4115 106.002 76.9039 105.928 78.1478 106.828L88.2401 114.138C90.0291 115.434 92.5299 115.034 93.8258 113.245L105.337 97.353C106.633 95.5637 106.233 93.0626 104.444 91.7668L94.3495 84.4562C85.0623 77.7296 74.2236 77.0454 65.0761 80.5651C58.6875 83.0233 53.1239 87.5321 49.49 93.465C46.2434 98.7656 44.5371 105.203 45.1589 112.331C45.159 112.333 45.1603 112.334 45.1621 112.335V112.335Z" fill="#66DE88" fill-opacity="0.05"/>
<path d="M32.5549 106.456L22.0071 113.841C20.1976 115.108 17.7037 114.669 16.4365 112.859L5.17789 96.7832C3.91052 94.9735 4.3503 92.479 6.16013 91.2119L16.7071 83.8274C17.9894 82.9305 18.4004 81.4567 18.0788 80.1599C17.7919 79.0031 16.9221 77.9871 15.5676 77.6468L3.48106 74.6141C1.33843 74.0765 0.0372589 71.9038 0.574738 69.7611L5.3492 50.7278C5.88674 48.5848 8.05976 47.2835 10.2026 47.8213L22.2915 50.855C32.5681 53.4333 39.7446 60.342 43.2879 68.6894C48.6511 81.3245 45.6899 97.256 32.5549 106.456Z" fill="#66DE88" fill-opacity="0.05"/>
<path d="M74.9602 17.2483C74.9593 17.2479 74.9587 17.247 74.9586 17.246L73.8383 4.42296C73.646 2.22199 71.7058 0.593723 69.5048 0.786315L49.9525 2.49722C47.7516 2.68981 46.1236 4.63026 46.3165 6.83116L47.4401 19.6544C47.5757 21.2121 46.7114 22.4742 45.512 23.0618C44.4417 23.5861 43.1045 23.5734 41.973 22.7544L31.8801 15.4421C30.0907 14.1456 27.5891 14.5457 26.2933 16.3356L14.785 32.2315C13.4896 34.0207 13.8897 36.5211 15.6786 37.8168L25.7713 45.1265C34.3524 51.3415 44.2579 52.3992 52.93 49.7491C66.0581 45.7372 76.3596 33.2282 74.9618 17.2506C74.9617 17.2496 74.9611 17.2487 74.9602 17.2483V17.2483Z" fill="#66DE88" fill-opacity="0.05"/>
<path d="M124.33 61.218C117.981 74.8326 101.798 80.7229 88.1829 74.3743C81.3756 71.2 76.4993 65.567 74.1185 59.0257C71.7377 52.4844 71.8522 45.0349 75.0266 38.2275C78.6343 30.4906 85.4182 25.2482 93.1018 23.3288C98.939 21.8706 105.296 22.3303 111.173 25.0712C118.98 28.7112 124.246 35.5845 126.123 43.3529C127.519 49.1334 127.038 55.4094 124.33 61.218Z" fill="#66DE88" fill-opacity="0.05"/>
</svg>
