<svg width="153" height="129" viewBox="0 0 153 129" fill="none" xmlns="http://www.w3.org/2000/svg">
<path d="M45.1108 112.284C45.1126 112.285 45.1138 112.286 45.114 112.288L46.2318 125.108C46.4238 127.309 48.3639 128.938 50.565 128.746L70.1156 127.037C72.3165 126.844 73.9447 124.904 73.7521 122.703L72.6294 109.877C72.5058 108.457 73.2128 107.283 74.247 106.642C75.3602 105.951 76.8526 105.877 78.0966 106.777L88.1888 114.087C89.9779 115.382 92.4786 114.983 93.7745 113.194L105.286 97.3017C106.582 95.5125 106.182 93.0114 104.393 91.7155L94.2982 84.4049C85.0111 77.6783 74.1723 76.9941 65.0249 80.5139C58.6363 82.9721 53.0727 87.4808 49.4388 93.4138C46.1922 98.7144 44.4859 105.152 45.1076 112.279C45.1078 112.281 45.109 112.283 45.1108 112.284V112.284Z" fill="#66DE88" fill-opacity="0.1"/>
<path d="M32.5037 106.405L21.9559 113.79C20.1464 115.057 17.6524 114.617 16.3853 112.808L5.12663 96.7319C3.85926 94.9222 4.29904 92.4278 6.10887 91.1606L16.6559 83.7762C17.9381 82.8793 18.3492 81.4055 18.0275 80.1086C17.7407 78.9518 16.8708 77.9358 15.5164 77.5955L3.4298 74.5628C1.28717 74.0252 -0.014003 71.8525 0.523476 69.7099L5.29794 50.6765C5.83548 48.5336 8.0085 47.2323 10.1513 47.77L22.2402 50.8037C32.5168 53.382 39.6934 60.2907 43.2366 68.6381C48.5998 81.2732 45.6387 97.2047 32.5037 106.405Z" fill="#66DE88" fill-opacity="0.1"/>
<path d="M74.9089 17.197C74.908 17.1966 74.9074 17.1957 74.9073 17.1947L73.7871 4.37169C73.5948 2.17072 71.6545 0.542454 69.4536 0.735046L49.9012 2.44595C47.7003 2.63854 46.0723 4.57899 46.2652 6.77989L47.3888 19.6031C47.5244 21.1609 46.6601 22.4229 45.4608 23.0105C44.3905 23.5349 43.0533 23.5221 41.9217 22.7031L31.8289 15.3908C30.0395 14.0944 27.5378 14.4945 26.242 16.2843L14.7337 32.1802C13.4384 33.9694 13.8385 36.4698 15.6274 37.7655L25.72 45.0753C34.3012 51.2903 44.2067 52.3479 52.8788 49.6978C66.0068 45.6859 76.3084 33.177 74.9105 17.1993C74.9104 17.1983 74.9098 17.1974 74.9089 17.197V17.197Z" fill="#66DE88" fill-opacity="0.1"/>
<path d="M124.278 61.1667C117.93 74.7814 101.746 80.6717 88.1316 74.323C81.3243 71.1487 76.4481 65.5157 74.0672 58.9744C71.6864 52.4331 71.801 44.9836 74.9753 38.1762C78.5831 30.4393 85.3669 25.1969 93.0505 23.2775C98.8878 21.8193 105.244 22.279 111.122 25.0199C118.928 28.66 124.195 35.5332 126.072 43.3017C127.468 49.0821 126.987 55.3582 124.278 61.1667Z" fill="#66DE88" fill-opacity="0.1"/>
</svg>
