<svg width="306" height="394" viewBox="0 0 306 394" fill="none" xmlns="http://www.w3.org/2000/svg">
<path d="M172.193 276.34C186.771 275.98 220.409 271.282 233.833 266.807C241.932 264.107 248.736 267.131 247.872 277.067C247.008 287.002 216.014 304.793 190.636 308.924C175.158 311.444 138.585 314.971 116.123 308.924C93.6605 302.876 67.8866 327.282 57.8074 340.241C51.328 348.341 35.7773 369.831 25.4102 390.997" stroke="#00210B" stroke-width="5" stroke-linecap="round"/>
<path d="M174.43 268.97C190.448 266.63 226.871 258.934 236.525 254.391C245.704 250.071 251.643 254.391 253.263 260.871C253.623 262.67 253.263 266.918 248.943 269.51" stroke="#00210B" stroke-width="5" stroke-linecap="round"/>
<path d="M159.316 254.389C172.275 248.63 200.353 239.487 208.992 248.99" stroke="#00210B" stroke-width="5" stroke-linecap="round"/>
<path d="M169.57 260.868C171.19 259.788 193.328 255.468 214.387 247.369C218.886 245.929 228.425 245.317 230.585 254.388" stroke="#00210B" stroke-width="5" stroke-linecap="round"/>
<path d="M111.258 277.071C134.116 282.29 178.428 288.086 172.812 269.511C167.313 251.323 141.001 249.944 127.742 251.584C127.208 251.65 126.668 251.498 126.237 251.176C90.0088 224.031 40.4025 257.23 21.085 279.23C13.8856 287.87 10.2859 292.729 2.72656 304.608" stroke="#00210B" stroke-width="5" stroke-linecap="round"/>
<path d="M106.937 95.1971V95.1971C106.242 95.194 105.937 96.0629 106.498 96.4736C120.876 106.982 152.265 124.451 177.916 120.077C178.109 120.044 178.308 120.067 178.488 120.145L202.309 130.479" stroke="#B4F1BD" stroke-width="5" stroke-linecap="round"/>
<path d="M84.8024 56.3086C81.9226 57.2085 76.2711 61.2762 76.7031 70.3474C77.3934 81.8548 86.1347 89.1307 90.419 92.1402C95.8186 95.3799 100.203 95.1108 104.781 95.1853V95.1853C104.946 95.188 109.067 94.8025 109.225 94.7517C112.186 93.7997 115.514 91.1968 114.5 85.4606" stroke="#B4F1BD" stroke-width="5" stroke-linecap="round"/>
<path d="M94.5184 39.5742C90.3787 41.0141 82.6392 46.3777 84.799 56.3128C86.9589 66.248 88.6158 69.1063 89.3358 70.5462C91.8907 76.0818 96.0546 79.2738 97.8967 80.2256C97.95 80.2531 97.9973 80.2823 98.0457 80.3178C100.56 82.1599 107.048 84.6975 114.497 85.4648C116.537 85.675 123.258 85.8567 124.756 86.0103C130.695 86.0103 134.475 83.7209 132.315 74.4193" stroke="#B4F1BD" stroke-width="5" stroke-linecap="round"/>
<path d="M104.443 20.668C100.453 20.668 91.8134 24.9876 94.5132 39.5664C96.673 51.2294 99.0498 56.4996 102.29 60.2793C105.529 64.0589 109.849 68.3786 116.328 70.3438L132.221 74.3889C132.28 74.4039 132.341 74.4135 132.401 74.4176L135.868 74.6487C136.014 74.6584 136.159 74.6375 136.294 74.5811C139.554 73.2217 144.756 68.8957 140.949 61.7045" stroke="#B4F1BD" stroke-width="5" stroke-linecap="round"/>
<path d="M236.326 67.3032L217.58 58.1687C217.274 58.0195 217.067 57.7349 217.022 57.3973C215.366 44.953 205.463 19.6142 178.212 13.653C150.566 7.60549 130.696 4.29377 124.216 3.39384C117.197 2.13395 103.374 3.17786 104.238 17.4327C104.305 18.5472 104.376 19.6272 104.448 20.6725C105.3 32.9956 108.234 37.0657 112.014 42.8106C118.067 51.7262 124.318 55.5779 127.133 57.044C132.315 59.7438 146.354 66.0287 147.434 52.5298V47.0856" stroke="#B4F1BD" stroke-width="5" stroke-linecap="round"/>
<path d="M178.216 13.6523C170.656 14.1923 145.926 18.08 133.399 20.6718C120.872 23.2636 123.86 34.3507 126.92 39.5702C133.028 48.224 156.094 46.9597 161.278 43.4688C161.736 43.1605 162.379 43.0899 162.819 43.4237C176.422 53.7556 180.401 52.5292 198.411 52.5292" stroke="#B4F1BD" stroke-width="5" stroke-linecap="round"/>
<path d="M141.172 70.543L140.955 137.843" stroke="#B4F1BD" stroke-width="5" stroke-linecap="round"/>
<rect x="129.414" y="140.883" width="23.0777" height="12.2786" rx="6.13928" stroke="#B4F1BD" stroke-width="5"/>
<path d="M140.961 154.578L140.961 193.455" stroke="#B4F1BD" stroke-width="5" stroke-linecap="round"/>
<path d="M263.334 164.541L201.779 129.984C193.859 115.765 188.064 84.5198 223.917 71.1288C256.839 58.8325 288.157 74.3222 303.275 82.9618" stroke="#B4F1BD" stroke-width="5" stroke-linecap="round"/>
<path d="M125.133 174.707H138.951C140.056 174.707 140.951 175.602 140.951 176.707V188.906C140.951 190.01 140.056 190.906 138.951 190.906H129.992C128.888 190.906 127.992 190.01 127.992 188.906V186.966C127.992 185.862 128.888 184.966 129.992 184.966H130.422C131.466 184.966 132.312 184.12 132.312 183.076C132.312 182.033 131.466 181.186 130.422 181.186H125.133C124.028 181.186 123.133 180.291 123.133 179.186V176.707C123.133 175.602 124.028 174.707 125.133 174.707Z" fill="#B4F1BD"/>
</svg>
