<svg width="663" height="456" viewBox="0 0 663 456" fill="none" xmlns="http://www.w3.org/2000/svg">
<path d="M445.494 63.0047L481.489 83.7867L523.409 107.989L603.655 154.319L659.412 186.511C660.369 187.063 660.697 188.286 660.145 189.243L613.302 270.376C602.671 286.024 589.834 265.386 581.151 254.148C563.785 231.673 543.71 236.941 535.15 243.929C509.172 270.947 538.327 297.895 557.567 294.997C583.873 291.035 592.975 301.435 588.932 308.438L542.641 388.617C542.143 389.478 541.098 389.848 540.184 389.456C530.188 385.166 505.019 372.361 480.988 358.486L402.343 313.532L326.224 269.585C325.268 269.033 324.94 267.809 325.492 266.853L375.816 179.69C376.165 179.086 376.82 178.704 377.518 178.7C402.356 178.563 404.979 193.591 416.201 207.933C429.524 224.962 448.406 225.659 458.609 216.078C471.948 203.549 479.273 171.987 441.133 164.75C411.722 159.169 393.898 148.371 401.984 134.366L442.762 63.7367C443.314 62.7801 444.537 62.4524 445.494 63.0047Z" stroke="#BA1A1A" stroke-width="4" stroke-linecap="round"/>
<path d="M82.0746 351.173V309.609V261.205C82.0746 249.449 83.7384 239.192 69.5878 238.385C55.4372 237.579 48.6989 253.598 24.4405 248.066C11.6378 245.147 0.856458 232.162 0.856445 216.949C0.856423 190.672 29.3751 174.818 56.7847 192.055C82.0746 207.96 82.0746 178.225 82.0746 168.545V104.161C82.0746 103.057 82.97 102.161 84.0746 102.161H177.76C196.627 103.544 185.172 124.98 179.781 138.119C169 164.396 183.599 179.147 193.932 183.066C230.319 192.055 239.079 153.332 226.95 138.119C210.365 117.318 214.821 104.236 222.907 104.236H313.071C314.233 104.236 315.153 105.215 315.104 106.376C314.636 117.482 315.222 145.308 315.222 172.694C315.222 208.651 347.567 196.896 347.567 197.587C347.567 198.279 396.033 184.675 400.126 222.481C402.821 247.375 376.542 263.279 347.567 254.289C324.387 247.097 320.613 255.673 320.613 263.279V351.173C320.613 352.278 319.718 353.173 318.613 353.173H217.966C217.268 353.173 216.61 352.796 216.258 352.194C203.72 330.752 215.422 320.967 222.233 304.077C230.319 284.024 221.481 267.324 208.082 263.279C190.562 257.991 159.566 267.428 172.369 304.077C182.242 332.339 181.802 353.173 165.63 353.173H84.0746C82.97 353.173 82.0746 352.278 82.0746 351.173Z" fill="black"/>
<path d="M401.85 406.239C406.123 412.919 414.94 427.373 416.02 431.745" stroke="#BA1A1A" stroke-width="5" stroke-linecap="round"/>
<path d="M384.98 409.883C382.731 415.348 381.606 431.624 395.101 453" stroke="#BA1A1A" stroke-width="5" stroke-linecap="round"/>
<path d="M359.34 406.239C350.568 413.527 332.619 430.531 331 440.247" stroke="#BA1A1A" stroke-width="5" stroke-linecap="round"/>
<path d="M387.679 49.7646C396.451 42.4772 414.4 25.4733 416.02 15.7568" stroke="#BA1A1A" stroke-width="5" stroke-linecap="round"/>
<path d="M362.039 46.1172C364.288 40.6516 365.412 24.3764 351.917 3.00005" stroke="#BA1A1A" stroke-width="5" stroke-linecap="round"/>
<path d="M345.17 49.7646C340.896 43.0845 332.08 28.6312 331 24.2587" stroke="#BA1A1A" stroke-width="5" stroke-linecap="round"/>
</svg>
