<svg width="708" height="503" viewBox="0 0 708 503" fill="none" xmlns="http://www.w3.org/2000/svg">
<path d="M482 326.732H550" stroke="black" stroke-width="20" stroke-linecap="round"/>
<path d="M482 326.335L431 238" stroke="black" stroke-width="20" stroke-linecap="round"/>
<path d="M432 413.335L482 326.732" stroke="black" stroke-width="5" stroke-linecap="round"/>
<path d="M154.202 448.696C95.5959 401.706 237.336 377.999 313.684 373.249C314.152 373.22 314.56 373.53 314.692 373.98C337.378 451.555 396.674 482.937 423.735 490.418C359.498 496.819 213.009 495.848 154.202 448.696Z" fill="black"/>
<path d="M199.898 201.681C193.937 200.798 180.56 198.237 174.732 195.059" stroke="#B4F1BD" stroke-width="5" stroke-linecap="round"/>
<path d="M339.631 222.873C321.751 224.418 281.487 224.992 247.58 212.277" stroke="#B4F1BD" stroke-width="5" stroke-linecap="round"/>
<path d="M305.857 315.585C260.162 316.689 163.078 314.393 121.754 299.029" stroke="#B4F1BD" stroke-width="5" stroke-linecap="round"/>
<path d="M191.951 362.606C145.815 361.061 43.3447 354.659 2.55078 341.414" stroke="#B4F1BD" stroke-width="5" stroke-linecap="round"/>
<path d="M646.248 271.218C666.778 272.542 709.161 283.801 705.188 257.973C703.123 244.551 688.734 242.195 681.26 242.696C680.902 242.72 680.564 242.568 680.355 242.277C671.907 230.549 650.097 212.373 627.615 230.149" stroke="#B4F1BD" stroke-width="5" stroke-linecap="round"/>
<path d="M399.232 94.0562C404.53 72.423 430.358 35.6467 491.284 61.6065L510.489 71.2204" stroke="#B4F1BD" stroke-width="5" stroke-linecap="round"/>
<path d="M491.283 61.6056C504.307 52.7757 536.316 43.328 552.209 76.1751" stroke="#B4F1BD" stroke-width="5" stroke-linecap="round"/>
<path d="M372.08 96.043H421.086" stroke="#B4F1BD" stroke-width="5" stroke-linecap="round"/>
<circle cx="482" cy="326" r="147.5" stroke="black" stroke-width="5"/>
<circle cx="482.012" cy="325.519" r="174.98" stroke="black" stroke-width="5"/>
<path d="M211.864 40.1411C210.044 28.8144 198.974 19.9901 185.325 19.9901C182.747 19.9901 180.169 20.3852 177.895 20.912C170.919 10.2438 157.725 3 142.56 3C120.116 3 102.07 18.8047 102.07 38.1655" stroke="#B4F1BD" stroke-width="5" stroke-miterlimit="10" stroke-linecap="round" stroke-linejoin="round"/>
<path d="M211.865 40.1407C228.091 41.8528 240.678 53.8381 240.678 68.4574C240.678 84.2621 225.968 97.0376 207.77 97.0376L118.449 96.9059H109.35C91.1523 96.9059 76.4424 84.1304 76.4424 68.3257C76.4424 54.6283 87.5127 43.3016 102.223 40.4041C108.895 39.0431 126.304 36.5056 142.561 37.2431M211.865 40.4041C206.911 39.5699 193.818 40.2724 181.08 49.7552" stroke="#B4F1BD" stroke-width="5" stroke-miterlimit="10" stroke-linecap="round" stroke-linejoin="round"/>
<circle cx="482" cy="326.732" r="23" fill="white" stroke="black" stroke-width="4"/>
</svg>
