<svg width="48" height="48" viewBox="0 0 48 48" fill="none" xmlns="http://www.w3.org/2000/svg">
<rect width="48" height="48" rx="12" fill="#326941"/>
<path d="M41 8L35.7748 12.1627M35.7748 12.1627C34.5288 10.6009 32.6093 9.6 30.456 9.6C28.8347 9.6 27.3458 10.1674 26.1773 11.1146C24.6392 12.3613 23.656 14.2658 23.656 16.4C23.656 18.2778 24.4171 19.9778 25.6477 21.2083C26.8782 22.4389 28.5782 23.2 30.456 23.2C34.2115 23.2 37.256 20.1555 37.256 16.4C37.256 14.7978 36.7019 13.3249 35.7748 12.1627ZM21.2416 36.3464L19.632 39.1341C19.3558 39.6123 18.7443 39.7762 18.266 39.5001L14.0166 37.0472C13.5382 36.7711 13.3743 36.1594 13.6505 35.6811L15.26 32.8936C15.4558 32.5549 15.3932 32.1776 15.1833 31.9177C14.9961 31.6859 14.6916 31.5476 14.3488 31.6136L11.2898 32.2035C10.7476 32.308 10.2232 31.9532 10.1186 31.411L9.18942 26.594C9.08481 26.0517 9.43968 25.5272 9.98201 25.4227L13.0416 24.8328C15.6424 24.3312 17.9984 25.1383 19.6832 26.6553C22.2333 28.9515 23.2456 32.874 21.2416 36.3464ZM15.4432 15.1064L13.8338 12.3197C13.5576 11.8414 13.7214 11.2297 14.1997 10.9535L18.4491 8.50008C18.9274 8.22391 19.5391 8.38783 19.8152 8.86621L21.4238 11.6533C21.4239 11.6535 21.4242 11.6536 21.4244 11.6536V11.6536C21.4247 11.6536 21.4249 11.6537 21.425 11.6539C23.4298 15.1264 22.4174 19.0491 19.8667 21.3451C18.1818 22.8618 15.8257 23.6687 13.2248 23.1672L10.1657 22.5773C9.62351 22.4728 9.26868 21.9485 9.37313 21.4062L10.3012 16.5887C10.4057 16.0462 10.9302 15.6913 11.4726 15.796L14.532 16.3864C14.8749 16.4524 15.1793 16.314 15.3664 16.0821C15.576 15.8223 15.6385 15.445 15.4432 15.1064ZM30.7 32.8936L32.3095 35.6811C32.5857 36.1594 32.4218 36.7711 31.9434 37.0472L27.6942 39.5C27.2159 39.7761 26.6042 39.6121 26.3282 39.1337L24.7204 36.3471C24.7202 36.3467 24.7197 36.3464 24.7192 36.3464V36.3464C24.7187 36.3464 24.7182 36.3461 24.718 36.3457C23.8241 34.7965 23.5305 33.1576 23.7061 31.6136C23.9026 29.8854 24.6868 28.276 25.8746 27.044C27.5753 25.2801 30.1035 24.2899 32.9184 24.8328L35.978 25.4227C36.5203 25.5272 36.8752 26.0517 36.7706 26.594L35.8414 31.411C35.7368 31.9532 35.2124 32.308 34.6702 32.2035L31.6112 31.6136C31.2342 31.541 30.9039 31.7155 30.7247 31.9896C30.5581 32.2443 30.522 32.585 30.7 32.8936Z" stroke="white" stroke-width="2"/>
</svg>
